<svg fill="#FF7A45" xmlns="http://www.w3.org/2000/svg" xmlns:xlink="http://www.w3.org/1999/xlink" version="1.1" x="0px" y="0px" viewBox="0 0 125 125" style="enable-background:new 0 0 125 125;" xml:space="preserve"><path d="M62.5,19.5c-23.7,0-43,19.3-43,43s19.3,43,43,43s43-19.3,43-43S86.2,19.5,62.5,19.5z M77.3,81c-3.4,4-8.3,6.5-13.5,6.8  c-0.5,0-0.9,0-1.3,0s-0.8,0-1.2,0C56,87.5,51.1,85,47.7,81c-3.6-4.2-5.3-9.8-4.7-15.3c0.4-3.6,1.8-6.9,4-9.7l13.2-17.6  c0.1-0.1,0.2-0.2,0.3-0.3l0.1-0.1l0.1-0.1c0,0,0.1-0.1,0.2-0.1c0-0.1,0.1-0.1,0.1-0.1c0.1-0.1,0.3-0.1,0.4-0.2h0.1  c0.2,0,0.3-0.1,0.5-0.1c0.1,0,0.1,0,0.1,0c0.2,0,0.3,0,0.5,0h0.1c0.2,0,0.3,0.1,0.5,0.1h0.1c0.2,0.1,0.3,0.1,0.5,0.2h0.1  c0.1,0.1,0.3,0.2,0.4,0.3c0.1,0,0.1,0,0.1,0c0.1,0.1,0.2,0.2,0.3,0.3l0.1,0.1l0.1,0.1L78,56c2.2,2.8,3.6,6.2,4,9.7  C82.6,71.2,80.9,76.7,77.3,81z"></path></svg>